Coordinates
version=1
nRows=6
nColumns=63
inDegrees=yes

Units are S.I. units (second, meters, Newtons, ...)
If the header above contains a line with 'inDegrees', this indicates whether rotational values are in degrees (yes) or radians (no).

endheader
time	pelvis_tilt	pelvis_list	pelvis_rotation	pelvis_tx	pelvis_ty	pelvis_tz	hip_flexion_r	hip_adduction_r	hip_rotation_r	knee_angle_r	knee_angle_r_beta	ankle_angle_r	subtalar_angle_r	mtp_angle_r	hip_flexion_l	hip_adduction_l	hip_rotation_l	knee_angle_l	knee_angle_l_beta	ankle_angle_l	subtalar_angle_l	mtp_angle_l	L5_S1_Flex_Ext	L5_S1_Lat_Bending	L5_S1_axial_rotation	L4_L5_Flex_Ext	L4_L5_Lat_Bending	L4_L5_axial_rotation	L3_L4_Flex_Ext	L3_L4_Lat_Bending	L3_L4_axial_rotation	L2_L3_Flex_Ext	L2_L3_Lat_Bending	L2_L3_axial_rotation	L1_L2_Flex_Ext	L1_L2_Lat_Bending	L1_L2_axial_rotation	L1_T12_Flex_Ext	L1_T12_Lat_Bending	L1_T12_axial_rotation	Abs_r3	Abs_r2	Abs_r1	Abs_t1	Abs_t2	neck_flexion	neck_bending	neck_rotation	arm_flex_r	arm_add_r	arm_rot_r	elbow_flex_r	pro_sup_r	wrist_flex_r	wrist_dev_r	arm_flex_l	arm_add_l	arm_rot_l	elbow_flex_l	pro_sup_l	wrist_flex_l	wrist_dev_l
      1.13559322	     -7.15968206	     -7.11329816	    100.26377689	      0.30955240	      0.79909203	      0.84600305	     -1.08826199	     -0.06741734	    -10.13617703	      0.82290869	      0.01436247	     22.01871338	      5.05424350	      0.00000000	      3.24695375	      2.01714262	      7.50010135	      7.40885084	      0.12930884	     16.18535360	      0.49482856	      0.00000000	     -0.12239649	     -0.25578145	     -0.31555086	     -0.22730252	     -0.34018932	     -0.33527279	     -0.20108520	     -0.62190701	     -0.33527279	     -0.13988695	     -0.62190701	     -0.27610700	     -0.11365738	     -0.52158953	     -0.25638507	     -0.06993736	     -0.39620546	     -0.23666314	     -0.87426590	     -2.89345088	     -1.75499922	      0.00000000	      0.00000000	      1.26236559	     -0.22238074	     -4.22872557	      8.90239795	     -6.16564547	     51.72782774	     44.69654175	     40.10250426	     10.16334469	      8.79128693	      9.48709786	    -11.76734564	     51.71228772	     55.01783016	     86.97934884	     11.85227357	      4.59313370
      1.15254237	     -7.18190468	     -7.16605919	    100.14102558	      0.30972651	      0.79908305	      0.84637571	     -0.97541424	     -0.13156113	    -10.97229273	      0.89052287	      0.01554256	     22.21383147	      6.26272859	      0.00000000	      3.38849074	      2.03613035	      7.12168647	      7.55063217	      0.13178339	     16.28763271	      0.68995377	      0.00000000	     -0.11109211	     -0.26020672	     -0.19573975	     -0.20630917	     -0.34607494	     -0.20797349	     -0.18251324	     -0.63266662	     -0.20797349	     -0.12696718	     -0.63266662	     -0.17127228	     -0.10316014	     -0.53061355	     -0.15903855	     -0.06347803	     -0.40306021	     -0.14680481	     -0.79351987	     -2.94351048	     -1.08864578	      0.00000000	      0.00000000	      1.55935314	     -0.15029306	     -4.96553821	      8.55234451	     -6.15201392	     50.42872247	     44.95254049	     39.14735025	      9.67989317	     10.60319645	     10.45933782	    -11.54849429	     53.36740755	     54.02093419	     87.32194152	     12.88708415	      3.63639792
      1.16949153	     -7.13933908	     -7.14024310	     99.84592584	      0.30979264	      0.79914194	      0.84668471	     -0.93188988	     -0.11441320	    -10.53930768	      0.90254045	      0.01575230	     22.05723116	      5.84006171	      0.00000000	      3.24820805	      2.11743916	      8.84170026	      7.30005885	      0.12741006	     15.62067614	     -2.31021182	      0.00000000	     -0.11178645	     -0.24738619	     -0.08994299	     -0.20759863	     -0.32902363	     -0.09556442	     -0.18365397	     -0.60149477	     -0.09556442	     -0.12776074	     -0.60149477	     -0.07870011	     -0.10380490	     -0.50446991	     -0.07307868	     -0.06387478	     -0.38320120	     -0.06745724	     -0.79847947	     -2.79848201	     -0.50023591	      0.00000000	      0.00000000	      1.95814199	     -0.13702276	     -5.04571262	      8.28809994	     -6.27665787	     49.34005281	     45.59671818	     38.70804050	      8.21107027	     12.67393847	     11.14545463	    -11.28207448	     54.50465863	     53.35402097	     87.26415535	     13.26071183	      3.48050281
      1.18644068	     -7.05788817	     -7.10499537	     99.53851698	      0.30995774	      0.79931100	      0.84686565	     -0.89310154	     -0.06282707	    -10.73005141	      0.90944393	      0.01587279	     21.94545280	      6.30264559	      0.00000000	      3.25047305	      1.98096699	      7.78748900	      7.34042866	      0.12811465	     15.75733496	     -1.34851411	      0.00000000	     -0.11019408	     -0.22997039	     -0.02427547	     -0.20464142	     -0.30586062	     -0.02579268	     -0.18103785	     -0.55915000	     -0.02579268	     -0.12594081	     -0.55915000	     -0.02124103	     -0.10232622	     -0.46895561	     -0.01972382	     -0.06296490	     -0.35622413	     -0.01820660	     -0.78710528	     -2.60147102	     -0.13501287	      0.00000000	      0.00000000	      2.24976390	     -0.07682931	     -4.91055955	      8.38527671	     -6.39808538	     49.32232380	     45.73174468	     38.75416499	      7.60550891	     13.29278987	     11.57000917	    -11.19656375	     55.38806826	     53.10448888	     86.43552875	     12.83570144	      3.67002969
      1.20338983	     -7.03182542	     -7.28227251	     99.27684453	      0.30998557	      0.79917822	      0.84746814	     -0.58115603	     -0.12051977	    -10.91198042	      0.99826235	      0.01742296	     21.84167535	      6.77179082	      0.00000000	      3.44163735	      1.99339966	      7.60318057	      7.26997290	      0.12688496	     15.54303562	     -1.38792881	      0.00000000	     -0.08826002	     -0.22265704	      0.00623516	     -0.16390769	     -0.29613387	      0.00662485	     -0.14500239	     -0.54136834	      0.00662485	     -0.10087238	     -0.54136834	      0.00545576	     -0.08195826	     -0.45404225	      0.00506606	     -0.05043178	     -0.34489576	      0.00467637	     -0.63043253	     -2.51874102	      0.03467807	      0.00000000	      0.00000000	      2.86235344	     -0.11909954	     -4.76196126	      8.36014538	     -6.36442831	     48.70349489	     46.00500915	     36.92241130	      7.26447147	     15.62556942	     11.72459092	    -11.05338931	     55.23367395	     52.62637903	     87.13990759	     13.62532371	      2.44901709
      1.22033898	     -6.98772491	     -7.38459931	     98.98480971	      0.31000800	      0.79915089	      0.84774085	     -0.37890782	     -0.13492956	    -10.72610471	      1.04420790	      0.01822487	     21.60217353	      6.80437529	      0.00000000	      3.55090387	      1.97868572	      7.37154426	      7.23176258	      0.12621807	     15.36108632	     -1.52216692	      0.00000000	     -0.07038513	     -0.20909790	     -0.01735568	     -0.13071222	     -0.27810021	     -0.01844041	     -0.11563572	     -0.50840064	     -0.01844041	     -0.08044316	     -0.50840064	     -0.01518622	     -0.06535963	     -0.42639244	     -0.01410149	     -0.04021806	     -0.32389265	     -0.01301676	     -0.50275391	     -2.36535730	     -0.09652709	      0.00000000	      0.00000000	      3.33660105	     -0.09982319	     -4.11097234	      8.57754902	     -6.37658847	     49.09390641	     46.17167689	     35.56359765	      6.67178334	     16.67738467	     11.34725724	    -11.07319977	     54.29800287	     52.74806223	     87.04592298	     13.56244746	      2.16008658
